<svg id="Layer_1" data-name="Layer 1" xmlns="http://www.w3.org/2000/svg" xmlns:xlink="http://www.w3.org/1999/xlink" viewBox="0 0 344.8 68"><defs><linearGradient id="linear-gradient" y1="68" x2="58.63" y2="9.37" gradientUnits="userSpaceOnUse"><stop offset="0" stop-color="#ed1c24"/><stop offset="0.4" stop-color="#ea1179"/><stop offset="1" stop-color="#e400ff"/></linearGradient></defs><title>Viestit</title><path d="M32,0h4A32,32,0,0,1,68,32v4A32,32,0,0,1,36,68H0a0,0,0,0,1,0,0V32A32,32,0,0,1,32,0Z" style="fill:url(#linear-gradient)"/><path d="M259.71,499.2h12.65l12.81,37,2.26,7.8h.69l2.42-7.8,13.34-37h12.64l-22.6,61.36h-12.3Z" transform="translate(-182 -496)" style="fill:#222221"/><path d="M322.76,509.91a7,7,0,0,1-2.17-5.14,6.86,6.86,0,0,1,2.17-5.1,7.19,7.19,0,0,1,5.2-2.1,7.06,7.06,0,0,1,5.15,2.1,6.92,6.92,0,0,1,2.12,5.1,7.06,7.06,0,0,1-2.12,5.14,7,7,0,0,1-5.15,2.14A7.1,7.1,0,0,1,322.76,509.91Zm-.52,6.94h11.35v43.71H322.24Z" transform="translate(-182 -496)" style="fill:#222221"/><path d="M353.85,558.93a21.55,21.55,0,0,1-8.27-8.27,24.69,24.69,0,0,1,0-23.48,22.53,22.53,0,0,1,8.14-8.53,21.85,21.85,0,0,1,11.6-3.17,22.7,22.7,0,0,1,11.78,2.92,19.05,19.05,0,0,1,7.49,8,24.56,24.56,0,0,1,2.56,11.22,26.68,26.68,0,0,1-.26,3.77H353.68A11.77,11.77,0,0,0,365.89,552a13,13,0,0,0,6.71-1.67,12.34,12.34,0,0,0,4.46-4.5l9.18,4.46q-6.75,11.65-20.52,11.65A23.61,23.61,0,0,1,353.85,558.93Zm22.34-25.54a8.63,8.63,0,0,0-1.51-4.07A10.7,10.7,0,0,0,371,526a11.38,11.38,0,0,0-5.59-1.33,10.69,10.69,0,0,0-7,2.36,13.13,13.13,0,0,0-4.2,6.38Z" transform="translate(-182 -496)" style="fill:#222221"/><path d="M400.05,558.68a17.37,17.37,0,0,1-7-8.49l10.13-4.37a10.26,10.26,0,0,0,3.94,4.67,11,11,0,0,0,5.94,1.59,12,12,0,0,0,5.19-1,3.32,3.32,0,0,0,2.08-3.21,3.49,3.49,0,0,0-1.9-3.22,22.38,22.38,0,0,0-5.72-1.92l-5.2-1.12a19.08,19.08,0,0,1-8.92-4.67,11.18,11.18,0,0,1-3.55-8.44,10.87,10.87,0,0,1,2.3-6.77,14.79,14.79,0,0,1,6.23-4.63,22.71,22.71,0,0,1,8.71-1.63q13.68,0,18.27,9.52l-9.7,4.19q-2.6-4.62-8.31-4.62a8.77,8.77,0,0,0-4.68,1.07,3.11,3.11,0,0,0-1.73,2.7c0,2,2,3.6,5.89,4.63l6.49,1.54q6.58,1.62,9.92,5a11.21,11.21,0,0,1,3.33,8.23,11.79,11.79,0,0,1-2.47,7.41,16.15,16.15,0,0,1-6.75,5,24.27,24.27,0,0,1-9.48,1.8Q405,561.93,400.05,558.68Z" transform="translate(-182 -496)" style="fill:#222221"/><path d="M452.75,560.26a11.76,11.76,0,0,1-4.5-2.7q-4.08-3.85-4.07-11V526.45h-7.71v-9.6h7.71V504.51h11.34v12.34h10.83v9.6H455.52v18.09q0,3.33,1.47,4.79c.81.92,2.2,1.38,4.16,1.38a7.59,7.59,0,0,0,2.73-.43,21,21,0,0,0,2.81-1.46v11a21.45,21.45,0,0,1-7.88,1.46A17.92,17.92,0,0,1,452.75,560.26Z" transform="translate(-182 -496)" style="fill:#222221"/><path d="M477.43,509.91a7,7,0,0,1-2.16-5.14,6.85,6.85,0,0,1,2.16-5.1,7.2,7.2,0,0,1,5.2-2.1,7,7,0,0,1,5.15,2.1,6.92,6.92,0,0,1,2.12,5.1,7.06,7.06,0,0,1-2.12,5.14,7,7,0,0,1-5.15,2.14A7.12,7.12,0,0,1,477.43,509.91Zm-.52,6.94h11.35v43.71H476.91Z" transform="translate(-182 -496)" style="fill:#222221"/><path d="M512.85,560.26a11.76,11.76,0,0,1-4.5-2.7q-4.08-3.85-4.07-11V526.45h-7.71v-9.6h7.71V504.51h11.34v12.34h10.83v9.6H515.62v18.09q0,3.33,1.48,4.79c.8.92,2.19,1.38,4.15,1.38a7.59,7.59,0,0,0,2.73-.43,21.61,21.61,0,0,0,2.82-1.46v11a21.49,21.49,0,0,1-7.88,1.46A17.93,17.93,0,0,1,512.85,560.26Z" transform="translate(-182 -496)" style="fill:#222221"/></svg>