<?xml version="1.0" standalone="no"?>
<!DOCTYPE svg PUBLIC "-//W3C//DTD SVG 20010904//EN"
 "http://www.w3.org/TR/2001/REC-SVG-20010904/DTD/svg10.dtd">
<svg version="1.0" xmlns="http://www.w3.org/2000/svg"
 width="512.000000pt" height="512.000000pt" viewBox="0 0 512.000000 512.000000"
 preserveAspectRatio="xMidYMid meet">
<metadata>
Created by potrace 1.11, written by Peter Selinger 2001-2013
</metadata>
<g transform="translate(0.000000,512.000000) scale(0.100000,-0.100000)"
fill="#000000" stroke="none">
<path d="M1639 3592 c-50 -6 -83 -66 -66 -117 16 -47 98 -65 137 -30 60 55 10
158 -71 147z"/>
<path d="M2637 3579 c-99 -15 -153 -79 -156 -181 -1 -26 -4 -28 -46 -28 l-45
0 0 -59 0 -59 34 2 c19 2 40 0 46 -4 8 -5 12 -69 13 -200 l2 -194 56 1 c31 0
60 3 65 6 5 3 9 91 9 196 -1 125 3 192 9 194 10 3 173 1 186 -2 3 0 5 -89 5
-197 l0 -197 48 1 c26 0 55 1 65 1 17 1 19 13 18 179 -1 97 0 186 2 198 3 18
10 20 63 19 l59 -1 0 58 0 58 -64 0 -65 0 10 33 c13 46 35 59 90 52 l46 -6 -1
62 c-1 69 -1 69 -86 70 -102 1 -174 -61 -184 -158 -3 -21 -5 -41 -5 -45 -1 -5
-46 -8 -100 -8 l-99 0 3 26 c4 37 28 57 72 59 l38 3 0 57 c0 68 -11 76 -88 64z"/>
<path d="M2027 3379 c-128 -29 -210 -145 -203 -283 9 -158 121 -259 281 -251
94 4 139 29 208 111 17 21 17 22 -37 47 l-55 26 -29 -29 c-49 -49 -142 -52
-192 -7 -21 18 -50 66 -50 82 0 3 87 6 193 7 l192 3 0 49 c0 62 -27 135 -66
176 -56 58 -159 88 -242 69z m133 -128 c26 -18 53 -62 44 -70 -8 -8 -236 -6
-241 2 -3 4 7 23 22 42 41 55 120 66 175 26z"/>
<path d="M3299 3374 c-25 -7 -64 -30 -87 -50 -121 -103 -130 -295 -20 -406 56
-55 101 -72 193 -72 107 0 156 26 224 116 11 15 7 20 -40 42 l-52 26 -34 -30
c-77 -68 -182 -48 -229 43 -12 22 -12 28 -2 32 7 3 94 6 193 7 l180 3 1 50 c4
173 -155 289 -327 239z m147 -119 c29 -18 59 -63 50 -72 -7 -7 -225 -12 -239
-5 -11 5 24 60 49 77 41 27 99 27 140 0z"/>
<path d="M1589 3358 c-1 -7 -2 -140 -3 -295 -1 -209 -4 -285 -13 -294 -17 -17
-42 -20 -64 -9 -15 9 -18 3 -21 -40 -5 -85 -2 -89 70 -86 67 2 98 18 136 70
20 26 21 42 24 347 l3 319 -65 0 c-46 0 -66 -4 -67 -12z"/>
<path d="M1603 2440 c-95 -43 -138 -130 -109 -221 22 -69 60 -101 181 -149
100 -39 134 -67 135 -107 0 -35 -11 -53 -41 -68 -64 -33 -142 -7 -173 59 -9
20 -20 36 -24 36 -11 0 -100 -35 -107 -42 -9 -9 19 -69 50 -106 128 -152 413
-85 421 99 6 127 -38 172 -239 249 -32 13 -64 32 -72 44 -35 50 -5 95 70 103
42 5 48 3 80 -31 l34 -36 43 16 c24 10 47 20 51 24 23 20 -32 94 -94 125 -46
24 -158 27 -206 5z"/>
<path d="M2846 2439 c-19 -15 -26 -30 -26 -55 0 -40 37 -84 71 -84 33 0 77 31
82 58 15 81 -63 131 -127 81z"/>
<path d="M2044 2441 c-2 -2 -4 -155 -4 -338 l0 -334 62 3 63 3 0 332 c0 183
-2 333 -5 334 -20 3 -113 3 -116 0z"/>
<path d="M2414 2249 c-170 -65 -216 -290 -86 -420 67 -66 159 -88 258 -60 43
11 134 83 134 105 0 7 -20 23 -45 36 l-44 23 -36 -32 c-45 -39 -100 -44 -158
-14 -29 15 -70 71 -61 85 3 4 83 8 179 8 129 0 174 3 177 13 15 40 -15 152
-54 197 -57 68 -173 93 -264 59z m174 -126 c43 -47 33 -53 -93 -53 l-116 0 16
30 c36 70 138 83 193 23z"/>
<path d="M3224 2253 c-175 -59 -226 -311 -89 -432 50 -43 100 -62 170 -63 87
-1 166 38 208 103 l17 26 -51 23 c-45 22 -52 23 -63 9 -44 -60 -149 -68 -202
-15 -14 15 -34 52 -34 65 0 7 63 12 178 13 l177 3 -1 57 c-3 94 -58 177 -137
207 -44 17 -130 19 -173 4z m162 -124 c12 -11 24 -29 27 -40 5 -18 -2 -19
-109 -19 -128 0 -135 5 -83 57 45 47 116 48 165 2z"/>
<path d="M3853 2258 c-25 -5 -55 -22 -73 -39 l-30 -31 0 31 0 31 -60 0 -60 0
0 -240 0 -241 62 3 63 3 0 140 c1 111 5 147 18 172 28 53 88 72 155 49 19 -6
22 -4 23 21 2 48 1 95 -3 97 -11 10 -59 12 -95 4z"/>
<path d="M2838 2243 c-2 -5 -4 -111 -3 -238 l0 -230 62 -3 62 -3 3 138 c2 76
2 184 0 241 l-3 102 -59 0 c-32 0 -60 -3 -62 -7z"/>
</g>
</svg>
